<mxfile host="app.diagrams.net" modified="2022-10-16T09:55:25.929Z" agent="5.0 (Macintosh; Intel Mac OS X 10_14_6) AppleWebKit/537.36 (KHTML, like Gecko) Chrome/105.0.0.0 Safari/537.36" etag="zgc9KqhJ22Y6Erblvq9h" version="20.4.0" type="github">
  <diagram id="Nbi2OOFG4A7icGLgDpQb" name="第 1 页">
    <mxGraphModel dx="1426" dy="805" grid="1" gridSize="10" guides="1" tooltips="1" connect="1" arrows="1" fold="1" page="1" pageScale="1" pageWidth="827" pageHeight="1169" math="0" shadow="0">
      <root>
        <mxCell id="0" />
        <mxCell id="1" parent="0" />
        <mxCell id="kk27pRFW-uQP8ShshRhL-2" value="转维流程图" style="swimlane;childLayout=stackLayout;resizeParent=1;resizeParentMax=0;horizontal=1;startSize=20;horizontalStack=0;" parent="1" vertex="1">
          <mxGeometry x="70" y="310" width="1130" height="840" as="geometry">
            <mxRectangle x="220" y="250" width="100" height="30" as="alternateBounds" />
          </mxGeometry>
        </mxCell>
        <mxCell id="kk27pRFW-uQP8ShshRhL-3" value="运维阶段" style="swimlane;startSize=20;horizontal=0;" parent="kk27pRFW-uQP8ShshRhL-2" vertex="1">
          <mxGeometry y="20" width="1130" height="820" as="geometry" />
        </mxCell>
        <mxCell id="kk27pRFW-uQP8ShshRhL-10" value="技术经理" style="swimlane;" parent="kk27pRFW-uQP8ShshRhL-3" vertex="1">
          <mxGeometry x="20" width="280" height="820" as="geometry" />
        </mxCell>
        <mxCell id="iJtKhPZufYrxxJU5f385-1" value="转维申请(线下)" style="rounded=1;whiteSpace=wrap;html=1;" vertex="1" parent="kk27pRFW-uQP8ShshRhL-10">
          <mxGeometry x="60" y="150" width="120" height="60" as="geometry" />
        </mxCell>
        <mxCell id="iJtKhPZufYrxxJU5f385-3" style="edgeStyle=orthogonalEdgeStyle;rounded=0;orthogonalLoop=1;jettySize=auto;html=1;exitX=0.5;exitY=1;exitDx=0;exitDy=0;entryX=0.5;entryY=0;entryDx=0;entryDy=0;strokeColor=#000000;" edge="1" parent="kk27pRFW-uQP8ShshRhL-10" source="iJtKhPZufYrxxJU5f385-2" target="iJtKhPZufYrxxJU5f385-1">
          <mxGeometry relative="1" as="geometry" />
        </mxCell>
        <mxCell id="iJtKhPZufYrxxJU5f385-2" value="转维材料准备" style="rounded=1;whiteSpace=wrap;html=1;" vertex="1" parent="kk27pRFW-uQP8ShshRhL-10">
          <mxGeometry x="60" y="50" width="120" height="60" as="geometry" />
        </mxCell>
        <mxCell id="kk27pRFW-uQP8ShshRhL-17" value="研发人员" style="swimlane;" parent="kk27pRFW-uQP8ShshRhL-3" vertex="1">
          <mxGeometry x="300" width="200" height="820" as="geometry" />
        </mxCell>
        <mxCell id="iJtKhPZufYrxxJU5f385-24" value="自测通过再次提交测试" style="whiteSpace=wrap;html=1;rounded=1;" vertex="1" parent="kk27pRFW-uQP8ShshRhL-17">
          <mxGeometry x="50" y="660" width="120" height="60" as="geometry" />
        </mxCell>
        <mxCell id="iJtKhPZufYrxxJU5f385-22" value="问题修复" style="whiteSpace=wrap;html=1;rounded=1;" vertex="1" parent="kk27pRFW-uQP8ShshRhL-17">
          <mxGeometry x="50" y="550" width="120" height="60" as="geometry" />
        </mxCell>
        <mxCell id="iJtKhPZufYrxxJU5f385-25" value="" style="edgeStyle=orthogonalEdgeStyle;rounded=0;orthogonalLoop=1;jettySize=auto;html=1;strokeColor=#FF3333;" edge="1" parent="kk27pRFW-uQP8ShshRhL-17" source="iJtKhPZufYrxxJU5f385-22" target="iJtKhPZufYrxxJU5f385-24">
          <mxGeometry relative="1" as="geometry" />
        </mxCell>
        <mxCell id="kk27pRFW-uQP8ShshRhL-18" value="测试" style="swimlane;" parent="kk27pRFW-uQP8ShshRhL-3" vertex="1">
          <mxGeometry x="500" width="200" height="820" as="geometry" />
        </mxCell>
        <mxCell id="iJtKhPZufYrxxJU5f385-20" value="测试环境复现问题" style="whiteSpace=wrap;html=1;rounded=1;" vertex="1" parent="kk27pRFW-uQP8ShshRhL-18">
          <mxGeometry x="40" y="550" width="120" height="60" as="geometry" />
        </mxCell>
        <mxCell id="iJtKhPZufYrxxJU5f385-26" value="测试通过" style="whiteSpace=wrap;html=1;rounded=1;" vertex="1" parent="kk27pRFW-uQP8ShshRhL-18">
          <mxGeometry x="40" y="660" width="120" height="60" as="geometry" />
        </mxCell>
        <mxCell id="kk27pRFW-uQP8ShshRhL-19" value="运维" style="swimlane;" parent="kk27pRFW-uQP8ShshRhL-3" vertex="1">
          <mxGeometry x="700" width="430" height="820" as="geometry" />
        </mxCell>
        <mxCell id="iJtKhPZufYrxxJU5f385-4" value="试运维" style="whiteSpace=wrap;html=1;rounded=1;" vertex="1" parent="kk27pRFW-uQP8ShshRhL-19">
          <mxGeometry x="140" y="150" width="120" height="60" as="geometry" />
        </mxCell>
        <mxCell id="iJtKhPZufYrxxJU5f385-11" value="" style="edgeStyle=orthogonalEdgeStyle;rounded=0;orthogonalLoop=1;jettySize=auto;html=1;strokeColor=#000000;" edge="1" parent="kk27pRFW-uQP8ShshRhL-19" source="iJtKhPZufYrxxJU5f385-6" target="iJtKhPZufYrxxJU5f385-10">
          <mxGeometry relative="1" as="geometry" />
        </mxCell>
        <mxCell id="iJtKhPZufYrxxJU5f385-6" value="日常巡检" style="whiteSpace=wrap;html=1;rounded=1;" vertex="1" parent="kk27pRFW-uQP8ShshRhL-19">
          <mxGeometry x="140" y="290" width="120" height="60" as="geometry" />
        </mxCell>
        <mxCell id="iJtKhPZufYrxxJU5f385-7" value="" style="edgeStyle=orthogonalEdgeStyle;rounded=0;orthogonalLoop=1;jettySize=auto;html=1;strokeColor=#000000;" edge="1" parent="kk27pRFW-uQP8ShshRhL-19" source="iJtKhPZufYrxxJU5f385-4" target="iJtKhPZufYrxxJU5f385-6">
          <mxGeometry relative="1" as="geometry" />
        </mxCell>
        <mxCell id="iJtKhPZufYrxxJU5f385-12" style="edgeStyle=orthogonalEdgeStyle;rounded=0;orthogonalLoop=1;jettySize=auto;html=1;exitX=0.5;exitY=1;exitDx=0;exitDy=0;entryX=0.5;entryY=0;entryDx=0;entryDy=0;strokeColor=#000000;" edge="1" parent="kk27pRFW-uQP8ShshRhL-19" source="iJtKhPZufYrxxJU5f385-8" target="iJtKhPZufYrxxJU5f385-10">
          <mxGeometry relative="1" as="geometry" />
        </mxCell>
        <mxCell id="iJtKhPZufYrxxJU5f385-8" value="故障维修" style="whiteSpace=wrap;html=1;rounded=1;" vertex="1" parent="kk27pRFW-uQP8ShshRhL-19">
          <mxGeometry x="280" y="290" width="120" height="60" as="geometry" />
        </mxCell>
        <mxCell id="iJtKhPZufYrxxJU5f385-9" value="" style="edgeStyle=orthogonalEdgeStyle;rounded=0;orthogonalLoop=1;jettySize=auto;html=1;strokeColor=#000000;" edge="1" parent="kk27pRFW-uQP8ShshRhL-19" source="iJtKhPZufYrxxJU5f385-4" target="iJtKhPZufYrxxJU5f385-8">
          <mxGeometry relative="1" as="geometry">
            <Array as="points">
              <mxPoint x="200" y="230" />
              <mxPoint x="340" y="230" />
            </Array>
          </mxGeometry>
        </mxCell>
        <mxCell id="iJtKhPZufYrxxJU5f385-10" value="是否通过" style="rhombus;whiteSpace=wrap;html=1;rounded=1;" vertex="1" parent="kk27pRFW-uQP8ShshRhL-19">
          <mxGeometry x="160" y="400" width="80" height="80" as="geometry" />
        </mxCell>
        <mxCell id="iJtKhPZufYrxxJU5f385-33" value="" style="edgeStyle=orthogonalEdgeStyle;rounded=0;orthogonalLoop=1;jettySize=auto;html=1;strokeColor=#000000;" edge="1" parent="kk27pRFW-uQP8ShshRhL-19" source="iJtKhPZufYrxxJU5f385-13" target="iJtKhPZufYrxxJU5f385-32">
          <mxGeometry relative="1" as="geometry" />
        </mxCell>
        <mxCell id="iJtKhPZufYrxxJU5f385-13" value="正式转维" style="whiteSpace=wrap;html=1;rounded=1;" vertex="1" parent="kk27pRFW-uQP8ShshRhL-19">
          <mxGeometry x="140" y="520" width="120" height="60" as="geometry" />
        </mxCell>
        <mxCell id="iJtKhPZufYrxxJU5f385-14" value="通过" style="edgeStyle=orthogonalEdgeStyle;rounded=0;orthogonalLoop=1;jettySize=auto;html=1;strokeColor=#000000;" edge="1" parent="kk27pRFW-uQP8ShshRhL-19" source="iJtKhPZufYrxxJU5f385-10" target="iJtKhPZufYrxxJU5f385-13">
          <mxGeometry relative="1" as="geometry" />
        </mxCell>
        <mxCell id="iJtKhPZufYrxxJU5f385-17" value="业务异常" style="whiteSpace=wrap;html=1;rounded=1;" vertex="1" parent="kk27pRFW-uQP8ShshRhL-19">
          <mxGeometry x="10" y="290" width="120" height="60" as="geometry" />
        </mxCell>
        <mxCell id="iJtKhPZufYrxxJU5f385-18" value="" style="edgeStyle=orthogonalEdgeStyle;rounded=0;orthogonalLoop=1;jettySize=auto;html=1;strokeColor=#000000;" edge="1" parent="kk27pRFW-uQP8ShshRhL-19" source="iJtKhPZufYrxxJU5f385-4" target="iJtKhPZufYrxxJU5f385-17">
          <mxGeometry relative="1" as="geometry">
            <Array as="points">
              <mxPoint x="200" y="230" />
              <mxPoint x="70" y="230" />
            </Array>
          </mxGeometry>
        </mxCell>
        <mxCell id="iJtKhPZufYrxxJU5f385-15" value="业务问题" style="whiteSpace=wrap;html=1;rounded=1;" vertex="1" parent="kk27pRFW-uQP8ShshRhL-19">
          <mxGeometry x="10" y="630" width="120" height="60" as="geometry" />
        </mxCell>
        <mxCell id="iJtKhPZufYrxxJU5f385-16" value="" style="edgeStyle=orthogonalEdgeStyle;rounded=0;orthogonalLoop=1;jettySize=auto;html=1;strokeColor=#000000;" edge="1" parent="kk27pRFW-uQP8ShshRhL-19" source="iJtKhPZufYrxxJU5f385-13" target="iJtKhPZufYrxxJU5f385-15">
          <mxGeometry relative="1" as="geometry">
            <Array as="points">
              <mxPoint x="200" y="590" />
              <mxPoint x="70" y="590" />
            </Array>
          </mxGeometry>
        </mxCell>
        <mxCell id="iJtKhPZufYrxxJU5f385-30" value="故障维修" style="whiteSpace=wrap;html=1;rounded=1;" vertex="1" parent="kk27pRFW-uQP8ShshRhL-19">
          <mxGeometry x="280" y="630" width="120" height="60" as="geometry" />
        </mxCell>
        <mxCell id="iJtKhPZufYrxxJU5f385-31" value="" style="edgeStyle=orthogonalEdgeStyle;rounded=0;orthogonalLoop=1;jettySize=auto;html=1;strokeColor=#000000;" edge="1" parent="kk27pRFW-uQP8ShshRhL-19" source="iJtKhPZufYrxxJU5f385-13" target="iJtKhPZufYrxxJU5f385-30">
          <mxGeometry relative="1" as="geometry">
            <Array as="points">
              <mxPoint x="200" y="590" />
              <mxPoint x="340" y="590" />
            </Array>
          </mxGeometry>
        </mxCell>
        <mxCell id="iJtKhPZufYrxxJU5f385-32" value="日常巡检" style="whiteSpace=wrap;html=1;rounded=1;" vertex="1" parent="kk27pRFW-uQP8ShshRhL-19">
          <mxGeometry x="140" y="630" width="120" height="60" as="geometry" />
        </mxCell>
        <mxCell id="iJtKhPZufYrxxJU5f385-5" value="" style="edgeStyle=orthogonalEdgeStyle;rounded=0;orthogonalLoop=1;jettySize=auto;html=1;strokeColor=#000000;" edge="1" parent="kk27pRFW-uQP8ShshRhL-3" source="iJtKhPZufYrxxJU5f385-1" target="iJtKhPZufYrxxJU5f385-4">
          <mxGeometry relative="1" as="geometry" />
        </mxCell>
        <mxCell id="iJtKhPZufYrxxJU5f385-19" style="edgeStyle=orthogonalEdgeStyle;rounded=0;orthogonalLoop=1;jettySize=auto;html=1;exitX=0;exitY=0.5;exitDx=0;exitDy=0;entryX=0;entryY=0.5;entryDx=0;entryDy=0;strokeColor=#FF3333;" edge="1" parent="kk27pRFW-uQP8ShshRhL-3" source="iJtKhPZufYrxxJU5f385-10" target="iJtKhPZufYrxxJU5f385-2">
          <mxGeometry relative="1" as="geometry" />
        </mxCell>
        <mxCell id="iJtKhPZufYrxxJU5f385-35" value="不通过" style="edgeLabel;html=1;align=center;verticalAlign=middle;resizable=0;points=[];" vertex="1" connectable="0" parent="iJtKhPZufYrxxJU5f385-19">
          <mxGeometry x="-0.9593" y="1" relative="1" as="geometry">
            <mxPoint as="offset" />
          </mxGeometry>
        </mxCell>
        <mxCell id="iJtKhPZufYrxxJU5f385-21" value="" style="edgeStyle=orthogonalEdgeStyle;rounded=0;orthogonalLoop=1;jettySize=auto;html=1;strokeColor=#FF3333;" edge="1" parent="kk27pRFW-uQP8ShshRhL-3" source="iJtKhPZufYrxxJU5f385-17" target="iJtKhPZufYrxxJU5f385-20">
          <mxGeometry relative="1" as="geometry" />
        </mxCell>
        <mxCell id="iJtKhPZufYrxxJU5f385-27" value="" style="edgeStyle=orthogonalEdgeStyle;rounded=0;orthogonalLoop=1;jettySize=auto;html=1;strokeColor=#FF3333;" edge="1" parent="kk27pRFW-uQP8ShshRhL-3" source="iJtKhPZufYrxxJU5f385-24" target="iJtKhPZufYrxxJU5f385-26">
          <mxGeometry relative="1" as="geometry" />
        </mxCell>
        <mxCell id="iJtKhPZufYrxxJU5f385-23" value="" style="edgeStyle=orthogonalEdgeStyle;rounded=0;orthogonalLoop=1;jettySize=auto;html=1;strokeColor=#FF3333;" edge="1" parent="kk27pRFW-uQP8ShshRhL-3" source="iJtKhPZufYrxxJU5f385-20" target="iJtKhPZufYrxxJU5f385-22">
          <mxGeometry relative="1" as="geometry" />
        </mxCell>
        <mxCell id="iJtKhPZufYrxxJU5f385-34" style="edgeStyle=orthogonalEdgeStyle;rounded=0;orthogonalLoop=1;jettySize=auto;html=1;exitX=0;exitY=0.5;exitDx=0;exitDy=0;entryX=1;entryY=0.5;entryDx=0;entryDy=0;strokeColor=#FF3333;" edge="1" parent="kk27pRFW-uQP8ShshRhL-3" source="iJtKhPZufYrxxJU5f385-15" target="iJtKhPZufYrxxJU5f385-20">
          <mxGeometry relative="1" as="geometry" />
        </mxCell>
        <mxCell id="iJtKhPZufYrxxJU5f385-28" style="edgeStyle=orthogonalEdgeStyle;rounded=0;orthogonalLoop=1;jettySize=auto;html=1;exitX=0.5;exitY=1;exitDx=0;exitDy=0;strokeColor=#FF3333;" edge="1" parent="1" source="iJtKhPZufYrxxJU5f385-26">
          <mxGeometry relative="1" as="geometry">
            <mxPoint x="150" y="410" as="targetPoint" />
            <Array as="points">
              <mxPoint x="670" y="1080" />
              <mxPoint x="130" y="1080" />
              <mxPoint x="130" y="410" />
            </Array>
          </mxGeometry>
        </mxCell>
        <mxCell id="iJtKhPZufYrxxJU5f385-29" value="重新发起" style="edgeLabel;html=1;align=center;verticalAlign=middle;resizable=0;points=[];" vertex="1" connectable="0" parent="iJtKhPZufYrxxJU5f385-28">
          <mxGeometry x="0.3869" y="1" relative="1" as="geometry">
            <mxPoint y="1" as="offset" />
          </mxGeometry>
        </mxCell>
      </root>
    </mxGraphModel>
  </diagram>
</mxfile>
